# xmcd CD database file
#
# Track frame offsets:
#	150
#	18415
#	37910
#	63867
#
# Disc length: 1094 seconds
#
# Revision: 3
# Processed by: cddbd v1.5.2PL0 Copyright (c) Steve Scherf et al.
# Submitted via: CDex 1.70beta2
#
DISCID=25044404
DTITLE=TOMOYASU HOTEI - LOVE JUNKIE
DYEAR=2000
DGENRE=Rock
TTITLE0=LOVE JUNKIE
TTITLE1=LOVE JUNKIE CAPTAIN ROCK MIX
TTITLE2=LOVE JUNKIE APOLLO FOUR FORTY MIX
TTITLE3=LOVE JUNKIE INSTRUMENTAL
EXTD=YEAR: 2000
EXTT0=
EXTT1=
EXTT2=
EXTT3=
PLAYORDER=
